<svg id="Layer_1" data-name="Layer 1" xmlns="http://www.w3.org/2000/svg" viewBox="0 0 353.2 87.8">
  <defs>
    <style>
      .cls-1 {
        fill: #fff;
      }
    </style>
  </defs>
  <title>birdyConnect-dark</title>
  <g>
    <path class="cls-1" d="M231.7,34l-4.9-8.8L212,24.4c-4.8-6.3-14.4-15.9-15.9-16.8a7.4,7.4,0,0,0-3.9-1.1H192a9.5,9.5,0,0,0-16.3-3.1l-10.5.2,8.2,5.5c0,.1,0,.2,0,.4a9.5,9.5,0,0,0,1.8,5.5,13.9,13.9,0,0,0,12.8,19.4l4.2-.2a4,4,0,0,0,0,.5,4.3,4.3,0,0,0,2,3.4L191.7,46l1.7.6,2.6-8.1a4,4,0,0,0,3-3.7,6.5,6.5,0,0,0-.3-1.6,16.7,16.7,0,0,0,7.5-3.7l7.1,1h.2a1.2,1.2,0,0,0,1.2-.9c0-.1-.4-.9-.4-1ZM173.8,7.2,171,5.3h3.5A9.4,9.4,0,0,0,173.8,7.2Zm16.4-.4h-2.2a13.8,13.8,0,0,0-11.8,6.5,7.9,7.9,0,0,1-.9-3.7c0-.2,0-.4.1-.6a7.7,7.7,0,0,1,14.9-2.2h0m5.4,29.9c-.8,0-1.6-1.3-1.6-2a3.4,3.4,0,0,1,.1-.7l2.8-.5a4.3,4.3,0,0,1,.2,1.2C197.2,35.5,196.4,36.7,195.6,36.7Zm2.4-5.3-1.8.4-1.3.2-2.1.3-4.7.3a12.1,12.1,0,0,1-.7-24.2,7.5,7.5,0,0,0-1.5,1.7c-2,3.2-1.8,6.3.7,9.6h.1c1.6,2.3,4.7,6.5,17.3,9.2A17.5,17.5,0,0,1,198,31.5Zm14.1-3-4.6-.7-1.9-.3c-12.9-2.5-15.9-6.6-17.4-8.7H188c-2-2.8-2.2-5-.6-7.6a5.5,5.5,0,0,1,3-2.4,5.4,5.4,0,0,1,4.7.5c2.4,1.5,8.5,8,12.8,13.3l1.5,1.9a40.1,40.1,0,0,1,3.1,4.2Zm13.7-1.6,2.6,4.6-15.1-5.2"/>
    <g>
      <path class="cls-1" d="M0,30H18.9c8,0,12.6,4.2,12.6,10.8,0,4.9-2.3,8.1-6.1,9.6,6.3,1,10.2,5.4,10.2,12S30.3,74.8,21,74.8H0ZM18.5,49.5c6.3,0,9.9-2.9,9.9-8.3s-3.6-8.3-9.9-8.3H3.2V49.5Zm2,22.3C27.9,71.8,32,68.3,32,62s-4.2-9.7-11.5-9.7H3.2V71.8Z"/>
      <path class="cls-1" d="M41.2,30.9a2.6,2.6,0,1,1-2.6,2.6A2.6,2.6,0,0,1,41.2,30.9ZM39.7,44.2h3.1V74.8H39.7Z"/>
      <path class="cls-1" d="M50.3,44.2h3.1v6.3a14.8,14.8,0,0,1,12.3-7.1v3.2a13.8,13.8,0,0,0-12.3,8.1V74.8H50.3Z"/>
      <path class="cls-1" d="M65.2,59.5c0-8.5,6.1-16.1,15.5-16.1a15.1,15.1,0,0,1,12.5,6.1V30h3.1V74.8H93.3V69.5a15.1,15.1,0,0,1-12.5,6.1C71.4,75.5,65.2,68,65.2,59.5Zm28.1,5.6V53.9a13.5,13.5,0,0,0-11.9-7.5,12.9,12.9,0,0,0-13,13.2,12.8,12.8,0,0,0,13,13.1A13.3,13.3,0,0,0,93.3,65.2Z"/>
      <path class="cls-1" d="M99.5,86.9V83.9a7.8,7.8,0,0,0,4.1,1c4.3,0,6.5-3.8,9.6-10.7l-14.1-30h3.5l12.2,26.2,11.8-26.2H130l-15.4,34c-2.7,5.9-5.6,9.6-10.6,9.6A8.3,8.3,0,0,1,99.5,86.9Z"/>
      <path class="cls-1" d="M132.1,52.4c0-13.5,9.9-23.2,22.6-23.2a23,23,0,0,1,12.8,3.5v3.4a22.6,22.6,0,0,0-12.7-3.8c-10.8,0-19.4,8.4-19.4,20.1s8.6,20.1,19.4,20.1a21.4,21.4,0,0,0,13.7-4.7v3.5a22.6,22.6,0,0,1-13.8,4.2C142.1,75.5,132.1,65.9,132.1,52.4Z"/>
      <path class="cls-1" d="M170.4,59.5a16.3,16.3,0,1,1,16.2,16A15.9,15.9,0,0,1,170.4,59.5Zm29.4,0a13.1,13.1,0,1,0-13.1,13.1A13,13,0,0,0,199.7,59.5Z"/>
      <path class="cls-1" d="M207,74.8V44.2h3.1v5.2a16.7,16.7,0,0,1,12.9-6c7.9,0,11.8,4.7,11.8,12.7V74.8h-3.1v-18c0-9-5.7-10.4-9.7-10.4s-9.9,3.6-12,7V74.8Z"/>
      <path class="cls-1" d="M240.9,74.8V44.2H244v5.2a16.7,16.7,0,0,1,12.9-6c7.9,0,11.8,4.7,11.8,12.7V74.8h-3.1v-18c0-9-5.7-10.4-9.7-10.4s-9.9,3.6-12,7V74.8Z"/>
      <path class="cls-1" d="M272.5,59.5c0-9.1,6.2-16.1,15.2-16.1,10.7,0,14.1,9.4,14.1,15.5v1H275.7c.3,7.5,5.9,12.7,14,12.7a17.1,17.1,0,0,0,9.9-2.9v3c-2,1.5-5.9,2.8-10.3,2.8C279.8,75.5,272.5,68.9,272.5,59.5Zm26.2-2.2c0-4.3-2.9-11-11.1-11a11.7,11.7,0,0,0-12,11Z"/>
      <path class="cls-1" d="M304.1,59.5a15.8,15.8,0,0,1,16.2-16.1,17.9,17.9,0,0,1,9.2,2.4v3a17.6,17.6,0,0,0-8.8-2.5,13.2,13.2,0,1,0,0,26.4,15.6,15.6,0,0,0,9.4-2.9v3.1a17.7,17.7,0,0,1-9.9,2.7A15.8,15.8,0,0,1,304.1,59.5Z"/>
      <path class="cls-1" d="M338.9,66.6V47h-7.7V44.2h7.7V34.4H342v9.8h11.3V47H342V65.8c0,5.1,1.7,6.7,5.7,6.7a10.4,10.4,0,0,0,5.1-1.4v3a12,12,0,0,1-5.9,1.4C341.2,75.5,338.9,72,338.9,66.6Z"/>
    </g>
  </g>
</svg>
